PathFileType	4	(X/Y/Z)	RBDS027static.trc
DataRate	CameraRate	NumFrames	NumMarkers	Units	OrigDataRate	OrigDataStartFrame	OrigNumFrames
150.000000	150.000000	4	48	mm	150.000000	75	150
Frame#	Time	L.Ankle			L.Ankle.Medial			L.ASIS			L.GTR			L.Heel.Bottom			L.Heel.Lateral			L.Heel.Top			L.HF			L.Iliac.Crest			L.Knee			L.Knee.Medial			L.MT1			L.MT2			L.MT5			L.PSIS			L.Shank.Bottom.Lateral			L.Shank.Bottom.Medial			L.Shank.Top.Lateral			L.Shank.Top.Medial			L.Thigh.Bottom.Lateral			L.Thigh.Bottom.Medial			L.Thigh.Top.Lateral			L.Thigh.Top.Medial			L.TT			R.Ankle			R.Ankle.Medial			R.ASIS			R.GTR			R.Heel.Bottom			R.Heel.Lateral			R.Heel.Top			R.HF			R.Iliac.Crest			R.Knee			R.Knee.Medial			R.MT1			R.MT2			R.MT5			R.PSIS			R.Shank.Bottom.Lateral			R.Shank.Bottom.Medial			R.Shank.Top.Lateral			R.Shank.Top.Medial			R.Thigh.Bottom.Lateral			R.Thigh.Bottom.Medial			R.Thigh.Top.Lateral			R.Thigh.Top.Medial			R.TT			
		X1	Y1	Z1	X2	Y2	Z2	X3	Y3	Z3	X4	Y4	Z4	X5	Y5	Z5	X6	Y6	Z6	X7	Y7	Z7	X8	Y8	Z8	X9	Y9	Z9	X10	Y10	Z10	X11	Y11	Z11	X12	Y12	Z12	X13	Y13	Z13	X14	Y14	Z14	X15	Y15	Z15	X16	Y16	Z16	X17	Y17	Z17	X18	Y18	Z18	X19	Y19	Z19	X20	Y20	Z20	X21	Y21	Z21	X22	Y22	Z22	X23	Y23	Z23	X24	Y24	Z24	X25	Y25	Z25	X26	Y26	Z26	X27	Y27	Z27	X28	Y28	Z28	X29	Y29	Z29	X30	Y30	Z30	X31	Y31	Z31	X32	Y32	Z32	X33	Y33	Z33	X34	Y34	Z34	X35	Y35	Z35	X36	Y36	Z36	X37	Y37	Z37	X38	Y38	Z38	X39	Y39	Z39	X40	Y40	Z40	X41	Y41	Z41	X42	Y42	Z42	X43	Y43	Z43	X44	Y44	Z44	X45	Y45	Z45	X46	Y46	Z46	X47	Y47	Z47	X48	Y48	Z48	

76	0.5	711.4923706054688	96.20492553710938	1046.55029296875	728.35009765625	100.8327255249023	1125.601196289063	811.5601806640625	920.5545043945313	1085.286865234375	742.3682861328125	834.8756713867188	1044.9189453125	637.2530517578125	33.3974723815918	1084.026611328125	669.4243774414063	55.48352813720703	1041.026489257813	649.60400390625	82.06276702880859	1086.583618164063	700.375244140625	418.1095886230469	1037.328491210938	755.6123046875	993.3392944335938	1061.873901367188	712.6261596679688	475.2747802734375	1046.98046875	704.0616455078125	462.8078308105469	1168.04541015625	853.2725219726563	52.61629867553711	1128.125	860.9232177734375	65.04591369628906	1082.511108398438	821.7630615234375	48.41558074951172	1017.543029785156	658.0009765625	953.0923461914063	1180.226684570313	695.1847534179688	161.1446838378906	1035.77099609375	659.8820190429688	155.1816864013672	1078.336303710938	671.046142578125	237.6479644775391	1028.369506835938	640.61376953125	233.5631103515625	1072.949584960938	703.306396484375	587.3023681640625	1028.555908203125	651.1981811523438	586.2277221679688	1077.743408203125	699.5755004882813	697.3323364257813	1030.975463867188	652.6753540039063	696.7214965820313	1080.74365234375	759.697265625	397.2696838378906	1088.178833007813	708.948974609375	97.07097625732422	1405.334594726563	732.6810302734375	111.2121429443359	1328.61181640625	828.9781494140625	929.0209350585938	1352.651245117188	760.5527954101563	842.2523193359375	1404.6064453125	640.0197143554688	37.62564849853516	1369.755981445313	672.6626586914063	55.20483016967773	1410.9228515625	649.2236938476563	82.80949401855469	1369.730346679688	725.437744140625	427.7416076660156	1419.250122070313	774.2403564453125	1006.766967773438	1374.263549804688	724.7327270507813	488.4815979003906	1410.581665039063	719.8740234375	471.2770080566406	1290.812866210938	852.9153442382813	51.58808135986328	1316.7734375	860.352294921875	67.63785552978516	1366.879150390625	826.192138671875	47.53359222412109	1432.655151367188	667.2655029296875	955.3633422851563	1278.257446289063	696.591064453125	159.8062133789063	1413.04931640625	663.56201171875	166.1385192871094	1374.362548828125	687.4091796875	242.6145477294922	1431.69873046875	652.716064453125	244.3365936279297	1390.522827148438	730.35009765625	574.28369140625	1426.197021484375	670.4740600585938	575.1890869140625	1383.188354492188	726.5602416992188	684.0693969726563	1427.714721679688	670.7528076171875	685.18798828125	1385.854370117188	778.2679443359375	407.8181457519531	1367.806640625	
77	0.5066666666666667	711.0026245117188	96.23912048339844	1046.2392578125	728.3483276367188	100.8292999267578	1125.59130859375	811.4295043945313	920.5552368164063	1085.284423828125	742.2648315429688	834.8707885742188	1044.919921875	637.2564086914063	33.38982009887695	1084.023803710938	669.4168701171875	55.46955108642578	1041.015869140625	649.6077270507813	82.05349731445313	1086.585083007813	700.3696899414063	418.0965881347656	1037.313232421875	755.494140625	993.3486328125	1061.87646484375	712.5953369140625	475.2620544433594	1046.956420898438	704.0610961914063	462.7956237792969	1168.036010742188	853.27099609375	52.61402130126953	1128.125122070313	860.90625	65.04684448242188	1082.506469726563	821.7618408203125	48.41594314575195	1017.547180175781	657.8760375976563	953.0794677734375	1180.224975585938	695.1744995117188	161.1170959472656	1035.78125	659.8846435546875	155.1561889648438	1078.34716796875	671.0359497070313	237.6262664794922	1028.387084960938	640.6041259765625	233.5428619384766	1072.974975585938	703.2523803710938	587.2959594726563	1028.54541015625	651.148681640625	586.208984375	1077.743774414063	699.50048828125	697.3145141601563	1030.972412109375	652.5991821289063	696.6968383789063	1080.746826171875	759.6785888671875	397.2589111328125	1088.177612304688	708.9452514648438	97.066162109375	1405.3310546875	732.6793212890625	111.2084808349609	1328.620239257813	828.8933715820313	929.0233764648438	1352.65478515625	760.4834594726563	842.2399291992188	1404.598999023438	640.0244750976563	37.62197113037109	1369.754272460938	672.6612548828125	55.20979690551758	1410.91943359375	649.2197265625	82.80555725097656	1369.728759765625	725.4129638671875	427.7398071289063	1419.243286132813	774.16650390625	1006.774719238281	1374.255493164063	724.6952514648438	488.4783630371094	1410.571411132813	719.8304443359375	471.2510681152344	1290.814208984375	852.9181518554688	51.59664916992188	1316.771484375	860.3486938476563	67.63217926025391	1366.880981445313	826.1993408203125	47.53017044067383	1432.656005859375	667.1617431640625	955.3626708984375	1278.2509765625	696.5857543945313	159.7981109619141	1413.052368164063	663.5613403320313	166.1248168945313	1374.360229492188	687.3853149414063	242.6100158691406	1431.6982421875	652.698486328125	244.3251495361328	1390.524658203125	730.3068237304688	574.275390625	1426.19140625	670.42236328125	575.1722412109375	1383.176879882813	726.50439453125	684.068359375	1427.691284179688	670.7042236328125	685.1714477539063	1385.8603515625	778.2380981445313	407.8222351074219	1367.81005859375	
78	0.5133333333333334	710.995849609375	96.23224639892578	1046.22265625	728.3480224609375	100.832275390625	1125.591552734375	811.3153686523438	920.5701293945313	1085.267211914063	742.1375732421875	834.8880615234375	1044.901611328125	637.245361328125	33.37640762329102	1084.019287109375	669.4097900390625	55.45843505859375	1041.012939453125	649.6024169921875	82.04515075683594	1086.572875976563	700.3818969726563	418.0987548828125	1037.291259765625	755.3765258789063	993.3740844726563	1061.87548828125	712.5851440429688	475.2657470703125	1046.951538085938	704.0639038085938	462.7886962890625	1168.029663085938	853.2515258789063	52.62335205078125	1128.126953125	860.9061889648438	65.05828094482422	1082.5126953125	821.7574462890625	48.41863250732422	1017.546813964844	657.7695922851563	953.07421875	1180.229736328125	695.1375122070313	161.1059417724609	1035.783325195313	659.8834838867188	155.1358032226563	1078.370239257813	671.019287109375	237.6100463867188	1028.402099609375	640.599853515625	233.5261535644531	1072.992919921875	703.204345703125	587.2904052734375	1028.537841796875	651.122802734375	586.18408203125	1077.740234375	699.4246826171875	697.3095092773438	1030.962524414063	652.5288696289063	696.6755981445313	1080.740234375	759.6766357421875	397.2476501464844	1088.162963867188	708.9525756835938	97.05994415283203	1405.335815429688	732.6865844726563	111.197998046875	1328.622802734375	828.80419921875	929.0348510742188	1352.639770507813	760.4119873046875	842.2476196289063	1404.583129882813	640.0142822265625	37.622314453125	1369.75146484375	672.6581420898438	55.20147705078125	1410.919189453125	649.2141723632813	82.80210113525391	1369.733642578125	725.7686767578125	427.7004699707031	1419.45654296875	774.0988159179688	1006.769226074219	1374.248291015625	724.6676025390625	488.4678039550781	1410.5615234375	719.7994995117188	471.2576599121094	1290.8046875	852.906005859375	51.58861923217773	1316.768920898438	860.3458862304688	67.63728332519531	1366.866577148438	826.207763671875	47.53036117553711	1432.657958984375	667.0667724609375	955.3536376953125	1278.242553710938	696.5769653320313	159.7910003662109	1413.04833984375	663.5469970703125	166.1047668457031	1374.361083984375	687.3656616210938	242.595458984375	1431.68994140625	652.679931640625	244.3116912841797	1390.512084960938	730.2615966796875	574.2718505859375	1426.182983398438	670.378662109375	575.1576538085938	1383.170776367188	726.4530029296875	684.05126953125	1427.681518554688	670.6434936523438	685.16455078125	1385.85595703125	778.2018432617188	407.8296813964844	1367.799194335938	
79	0.52	710.9939575195313	96.22604370117188	1046.21044921875	728.3546142578125	100.8305282592773	1125.580810546875	811.19873046875	920.5828247070313	1085.264526367188	742.0192260742188	834.8831787109375	1044.887329101563	637.248046875	33.36195755004883	1084.02197265625	669.4067993164063	55.4495849609375	1041.005493164063	649.6001586914063	82.03961181640625	1086.578857421875	700.3823852539063	418.0875244140625	1037.268920898438	755.2462158203125	993.373291015625	1061.867065429688	712.5718994140625	475.2590026855469	1046.939453125	704.0863037109375	462.7693176269531	1168.023193359375	853.243408203125	52.62892532348633	1128.125122070313	860.8986206054688	65.06862640380859	1082.515014648438	821.7529296875	48.42781448364258	1017.549011230469	657.65625	953.072265625	1180.2353515625	695.1263427734375	161.0928344726563	1035.79931640625	659.8812255859375	155.1062774658203	1078.387817382813	671.0076904296875	237.5996704101563	1028.430053710938	640.5886840820313	233.5155639648438	1073.003662109375	703.158203125	587.2822875976563	1028.529418945313	651.071533203125	586.1639404296875	1077.742309570313	699.3402099609375	697.29736328125	1030.961059570313	652.4545288085938	696.6605834960938	1080.739379882813	759.6795654296875	397.242431640625	1088.161010742188	708.9422607421875	97.05580139160156	1405.331420898438	732.66162109375	111.1868438720703	1328.615966796875	828.7294921875	929.0386962890625	1352.615234375	760.3406982421875	842.2528686523438	1404.578857421875	640.0172729492188	37.61120223999023	1369.747314453125	672.6639404296875	55.19453048706055	1410.921875	649.2054443359375	82.80181884765625	1369.730102539063	725.7291870117188	427.6930541992188	1419.446899414063	774.0179443359375	1006.770080566406	1374.235961914063	724.6292724609375	488.4716796875	1410.56005859375	719.7755126953125	471.2503051757813	1290.80859375	852.9078979492188	51.58096313476563	1316.771606445313	860.3489990234375	67.64012145996094	1366.879150390625	826.2003784179688	47.53312683105469	1432.658935546875	666.9724731445313	955.346435546875	1278.256225585938	696.5654907226563	159.7894439697266	1413.056640625	663.51806640625	166.2504425048828	1374.482543945313	687.3446655273438	242.5998687744141	1431.691772460938	652.6598510742188	244.2997436523438	1390.507934570313	730.2196044921875	574.269287109375	1426.17529296875	670.340087890625	575.1452026367188	1383.16064453125	726.3961181640625	684.0499267578125	1427.68212890625	670.5928955078125	685.148681640625	1385.85400390625	778.18212890625	407.8316040039063	1367.803955078125	
